<?xml version="1.0" encoding="UTF-8" standalone="no"?>
<!-- Created with Inkscape (http://www.inkscape.org/) -->

<svg
   width="512"
   height="512"
   viewBox="0 0 135.46666 135.46666"
   version="1.1"
   id="svg9391"
   inkscape:version="1.1.1 (3bf5ae0d25, 2021-09-20)"
   sodipodi:docname="favicon.svg"
   inkscape:export-filename="/home/blip/www/linuxitos/tools/assets/app/images/favicon2.png"
   inkscape:export-xdpi="456"
   inkscape:export-ydpi="456"
   xmlns:inkscape="http://www.inkscape.org/namespaces/inkscape"
   xmlns:sodipodi="http://sodipodi.sourceforge.net/DTD/sodipodi-0.dtd"
   xmlns:xlink="http://www.w3.org/1999/xlink"
   xmlns="http://www.w3.org/2000/svg"
   xmlns:svg="http://www.w3.org/2000/svg">
  <sodipodi:namedview
     id="namedview9393"
     pagecolor="#ffffff"
     bordercolor="#666666"
     borderopacity="1.0"
     inkscape:pageshadow="2"
     inkscape:pageopacity="0.0"
     inkscape:pagecheckerboard="0"
     inkscape:document-units="px"
     showgrid="false"
     units="px"
     inkscape:zoom="1.0173541"
     inkscape:cx="178.40396"
     inkscape:cy="302.74611"
     inkscape:window-width="1920"
     inkscape:window-height="1054"
     inkscape:window-x="0"
     inkscape:window-y="0"
     inkscape:window-maximized="1"
     inkscape:current-layer="g55" />
  <defs
     id="defs9388">
    <filter
       id="filter1032"
       x="-0.060000002"
       y="-0.060000002"
       width="1.12"
       height="1.12"
       color-interpolation-filters="sRGB">
      <feGaussianBlur
         id="feGaussianBlur1034"
         stdDeviation="0.6" />
    </filter>
    <linearGradient
       id="linearGradient1068"
       x1="17.443001"
       x2="17.709999"
       y1="22.502001"
       y2="13.498"
       gradientUnits="userSpaceOnUse"
       xlink:href="#linearGradient1058"
       gradientTransform="matrix(1.0534242,0,0,1.0534242,-2.0536258,-1.305547)" />
    <linearGradient
       id="linearGradient1058">
      <stop
         id="stop1054"
         stop-color="#136de2"
         offset="0" />
      <stop
         id="stop1056"
         stop-color="#26bbcf"
         offset="1" />
    </linearGradient>
    <linearGradient
       id="linearGradient1060"
       x1="29.919001"
       x2="29.975"
       y1="34.766998"
       y2="25.339001"
       gradientUnits="userSpaceOnUse"
       xlink:href="#linearGradient1058"
       gradientTransform="matrix(1.0534242,0,0,1.0534242,-2.0536258,-1.305547)" />
    <linearGradient
       id="linearGradient1052"
       x1="16"
       x2="31.358999"
       y1="39.040001"
       y2="39.040001"
       gradientUnits="userSpaceOnUse"
       xlink:href="#linearGradient1042"
       gradientTransform="matrix(0.78125,0,0,0.78125,-19.507642,-7.4666386)" />
    <linearGradient
       id="linearGradient1042">
      <stop
         id="stop1038"
         stop-color="#ffb636"
         offset="0" />
      <stop
         id="stop1040"
         stop-color="#eeed51"
         offset="1" />
    </linearGradient>
    <linearGradient
       id="linearGradient1044"
       x1="38.838001"
       x2="38.875"
       y1="31.829"
       y2="15.598"
       gradientUnits="userSpaceOnUse"
       xlink:href="#linearGradient1042"
       gradientTransform="matrix(0.78125,0,0,0.78125,0.50000012,-0.499453)" />
  </defs>
  <g
     inkscape:label="Layer 1"
     inkscape:groupmode="layer"
     id="layer1">
    <g
       id="g2661"
       transform="matrix(9.6049552,0,0,9.6049552,-10.690371,-23.749718)">
      <g
         opacity="0.25"
         filter="url(#filter1032)"
         transform="matrix(0.50615825,0,0,0.50615825,-3.801538,-2.1203298)"
         id="g33">
        <path
           d="m 15.332,14 h 5.336 C 21.402,14 22,14.598 22,15.332 v 5.336 C 22,21.402 21.402,22 20.668,22 H 15.332 C 14.598,22 14,21.402 14,20.668 V 15.332 C 14,14.598 14.598,14 15.332,14"
           id="path21" />
        <path
           d="m 27.332,26 h 5.336 C 33.406,26 34,26.598 34,27.332 v 5.336 C 34,33.406 33.406,34 32.668,34 H 27.332 C 26.598,34 26,33.406 26,32.668 V 27.332 C 26,26.598 26.598,26 27.332,26"
           id="path23" />
        <path
           d="m 14,24 c -1.109,0 -2,0.891 -2,2 v 8 c 0,1.109 0.891,2 2,2 h 8 c 1.109,0 2,-0.891 2,-2 v -8 c 0,-1.109 -0.891,-2 -2,-2 m -8,1 h 8 c 0.555,0 1,0.445 1,1 v 8 c 0,0.555 -0.445,1 -1,1 h -8 c -0.555,0 -1,-0.445 -1,-1 v -8 c 0,-0.555 0.445,-1 1,-1"
           id="path25" />
        <path
           d="m 15,26 h 6 c 0.551,0 1,0.449 1,1 v 6 c 0,0.551 -0.449,1 -1,1 h -6 c -0.551,0 -1,-0.449 -1,-1 v -6 c 0,-0.551 0.449,-1 1,-1"
           id="path27" />
        <path
           d="m 26,12 c -1.109,0 -2,0.891 -2,2 v 8 c 0,1.109 0.891,2 2,2 h 8 c 1.109,0 2,-0.891 2,-2 v -8 c 0,-1.109 -0.891,-2 -2,-2 m -8,1 h 8 c 0.555,0 1,0.445 1,1 v 8 c 0,0.555 -0.445,1 -1,1 h -8 c -0.555,0 -1,-0.445 -1,-1 v -8 c 0,-0.555 0.445,-1 1,-1"
           id="path29" />
        <path
           d="m 27,14 h 6 c 0.551,0 1,0.449 1,1 v 6 c 0,0.551 -0.449,1 -1,1 h -6 c -0.551,0 -1,-0.449 -1,-1 v -6 c 0,-0.551 0.449,-1 1,-1"
           id="path31" />
      </g>
      <g
         transform="matrix(0.48048854,0,0,0.48048854,-3.3209527,-1.9991876)"
         id="g59">
        <g
           id="g57">
          <g
             id="g55">
            <path
               fill="url(#linearGradient1068)"
               d="m 14.097474,13.442389 h 5.621071 c 0.773214,0 1.403161,0.629948 1.403161,1.403161 v 5.621072 c 0,0.773212 -0.629947,1.40316 -1.403161,1.40316 h -5.621071 c -0.773214,0 -1.403161,-0.629948 -1.403161,-1.40316 V 14.84555 c 0,-0.773213 0.629947,-1.403161 1.403161,-1.403161"
               id="path43"
               style="fill:url(#linearGradient1068);stroke-width:1.05342" />
            <path
               fill="url(#linearGradient1060)"
               d="m 26.738564,26.083479 h 5.621073 c 0.777426,0 1.40316,0.629948 1.40316,1.403162 v 5.621071 c 0,0.777426 -0.625734,1.40316 -1.40316,1.40316 h -5.621073 c -0.773213,0 -1.403161,-0.625734 -1.403161,-1.40316 v -5.621071 c 0,-0.773214 0.629948,-1.403162 1.403161,-1.403162"
               id="path45"
               style="fill:url(#linearGradient1060);stroke-width:1.05342" />
            <path
               fill="url(#linearGradient1052)"
               d="m 12.695135,23.975808 c -1.16823,0 -2.107259,0.939029 -2.107259,2.10726 v 8.427394 c 0,1.16823 0.939029,2.107259 2.107259,2.107259 h 8.427394 c 1.168232,0 2.105696,-0.939029 2.105696,-2.107259 v -8.427394 c 0,-1.168231 -0.937464,-2.10726 -2.105696,-2.10726 z m 0,1.054412 h 8.427394 c 0.58465,0 1.052849,0.468199 1.052849,1.052848 v 8.427394 c 0,0.58465 -0.468199,1.052847 -1.052849,1.052847 h -8.427394 c -0.58465,0 -1.054411,-0.468197 -1.054411,-1.052847 v -8.427394 c 0,-0.584649 0.469802,-1.052848 1.054411,-1.052848 z m 1.052849,1.052848 c -0.580437,0 -1.052849,0.472411 -1.052849,1.052848 v 6.321861 c 0,0.580438 0.472412,1.052849 1.052849,1.052849 h 6.320298 c 0.580437,0 1.054411,-0.472411 1.054411,-1.052849 v -6.321861 c 0,-0.580437 -0.474015,-1.052848 -1.054411,-1.052848 z"
               id="path47"
               style="fill:#f8cd41;fill-opacity:1;stroke-width:0.822987" />
            <path
               fill="url(#linearGradient1044)"
               d="m 26.388828,11.336117 c -1.168231,0 -2.107261,0.939029 -2.107261,2.10726 v 8.427394 c 0,1.16823 0.93903,2.105695 2.107261,2.105695 h 8.427393 c 1.16823,0 2.10726,-0.937465 2.10726,-2.105695 v -8.427394 c 0,-1.168231 -0.93903,-2.10726 -2.10726,-2.10726 z m 0,1.052848 h 8.427393 c 0.58465,0 1.052847,0.469803 1.052847,1.054412 v 8.427394 c 0,0.58465 -0.468197,1.052847 -1.052847,1.052847 h -8.427393 c -0.58465,0 -1.052849,-0.468197 -1.052849,-1.052847 v -8.427394 c 0,-0.58465 0.468199,-1.054412 1.052849,-1.054412 z m 1.052847,1.054412 c -0.580437,0 -1.052847,0.472411 -1.052847,1.052848 v 6.320297 c 0,0.580437 0.47241,1.054412 1.052847,1.054412 h 6.321862 c 0.580437,0 1.052848,-0.474015 1.052848,-1.054412 v -6.320297 c 0,-0.580437 -0.472411,-1.052848 -1.052848,-1.052848 z"
               id="path51"
               style="fill:#f9c93f;fill-opacity:1;stroke-width:0.822987" />
            <path
               fill="url(#linearGradient1052)"
               d="m -5.006861,17.032579 c -1.108984,0 -2.00039,0.891407 -2.00039,2.000391 v 8 c 0,1.108984 0.891406,2.000391 2.00039,2.000391 h 8.0000003 c 1.1089843,0 1.9989062,-0.891407 1.9989062,-2.000391 v -8 c 0,-1.108984 -0.8899219,-2.000391 -1.9989062,-2.000391 z m 0,1.000938 h 8.0000003 c 0.555,0 0.9994531,0.444453 0.9994531,0.999453 v 8 c 0,0.555 -0.4444531,0.999453 -0.9994531,0.999453 H -5.006861 c -0.555,0 -1.000937,-0.444453 -1.000937,-0.999453 v -8 c 0,-0.555 0.445976,-0.999453 1.000937,-0.999453 z m 0.999453,0.999453 c -0.551,0 -0.999453,0.448453 -0.999453,0.999453 v 6.00125 c 0,0.551 0.448453,0.999453 0.999453,0.999453 h 5.999766 c 0.551,0 1.0009375,-0.448453 1.0009375,-0.999453 v -6.00125 c 0,-0.551 -0.4499766,-0.999453 -1.0009375,-0.999453 z"
               id="path47-7"
               style="fill:url(#linearGradient1052);stroke-width:0.78125" />
          </g>
        </g>
      </g>
    </g>
  </g>
</svg>
